<?xml version="1.0" encoding="UTF-8"?>
<svg version="1.1" xmlns="http://www.w3.org/2000/svg" width="64" height="64">
<path d="M0 0 C-0.1491281 3.72994151 -1.2783216 5.55471474 -3.86743164 8.06762695 C-5.12439302 9.21586563 -6.38917052 10.35558569 -7.66015625 11.48828125 C-9.02587203 12.76436996 -10.38974686 14.04243123 -11.75195312 15.32226562 C-13.89657491 17.319168 -16.04952013 19.30093627 -18.23754883 21.25024414 C-27.43802783 28.93853025 -27.43802783 28.93853025 -31.93310547 39.54833984 C-32.07936796 43.45469762 -31.68443022 47.15719956 -31 51 C-32.485 51.495 -32.485 51.495 -34 52 C-35.04505735 53.83925399 -35.04505735 53.83925399 -36 56 C-37.01260441 57.43758346 -38.05512648 58.8545128 -39.125 60.25 C-39.66382812 60.95640625 -40.20265625 61.6628125 -40.7578125 62.390625 C-41.16773437 62.92171875 -41.57765625 63.4528125 -42 64 C-48.40547556 63.21908338 -51.50352071 59.15790828 -55.875 54.75 C-56.67164063 53.98558594 -57.46828125 53.22117188 -58.2890625 52.43359375 C-59.03671875 51.68722656 -59.784375 50.94085938 -60.5546875 50.171875 C-61.58311768 49.1523877 -61.58311768 49.1523877 -62.63232422 48.11230469 C-64 46 -64 46 -63.84008789 43.36547852 C-62.73299865 40.24819063 -61.2094636 39.13143007 -58.5625 37.1875 C-57.75941406 36.58292969 -56.95632812 35.97835937 -56.12890625 35.35546875 C-54 34 -54 34 -52 34 C-51.67 33.01 -51.34 32.02 -51 31 C-50.03352539 31.17982422 -49.06705078 31.35964844 -48.07128906 31.54492188 C-42.74645983 32.22218436 -37.63099894 32.58169716 -32.88500977 29.72851562 C-27.63741668 25.53795113 -23.21598604 20.49114191 -18.75 15.5 C-16.69843644 13.27815426 -14.635498 11.06801527 -12.56231689 8.86633301 C-11.28288313 7.50032944 -10.01782072 6.12068858 -8.76922607 4.72644043 C-8.20052795 4.10579712 -7.63182983 3.48515381 -7.04589844 2.84570312 C-6.30554352 2.01963562 -6.30554352 2.01963562 -5.55023193 1.17687988 C-4 0 -4 0 0 0 Z M-38 36 C-38 36.99 -38 37.98 -38 39 C-37.34 38.34 -36.68 37.68 -36 37 C-36.66 36.67 -37.32 36.34 -38 36 Z " fill="#FFCE54" transform="translate(64,0)"/>
<path d="M0 0 C-0.19502036 4.74309468 -2.37467088 6.72696808 -5.66162109 9.78135681 C-6.30953613 10.367845 -6.95745117 10.95433319 -7.625 11.55859375 C-8.98570196 12.84430022 -10.34503396 14.13145781 -11.703125 15.41992188 C-13.84234617 17.4297231 -15.98923305 19.42772148 -18.16210938 21.40112305 C-28.49489996 30.41265274 -28.49489996 30.41265274 -32.4375 42.97265625 C-32.36442415 46.32534561 -32.36442415 46.32534561 -32 49 C-38.01826738 44.02838782 -43.66337352 38.70170757 -49 33 C-49 32.67 -49 32.34 -49 32 C-47.76467529 32.16254272 -47.76467529 32.16254272 -46.50439453 32.32836914 C-40.14102061 32.59095495 -35.90572647 32.10561134 -31.00292969 28.01123047 C-26.73711157 24.03233592 -22.8024377 19.74632887 -18.875 15.4375 C-16.80882001 13.22342654 -14.73341412 11.01900726 -12.64700317 8.82398987 C-11.35786017 7.46238569 -10.08175272 6.08829286 -8.82052612 4.70079041 C-8.24537262 4.08337479 -7.67021912 3.46595917 -7.07763672 2.82983398 C-6.57803436 2.28213852 -6.07843201 1.73444305 -5.56369019 1.17015076 C-4 0 -4 0 0 0 Z M-38 36 C-38 36.99 -38 37.98 -38 39 C-37.34 38.34 -36.68 37.68 -36 37 C-36.66 36.67 -37.32 36.34 -38 36 Z " fill="#FF6200" transform="translate(64,0)"/>
<path d="M0 0 C2.27024968 -0.08097324 4.54132075 -0.13917704 6.8125 -0.1875 C8.07707031 -0.22230469 9.34164063 -0.25710937 10.64453125 -0.29296875 C14 0 14 0 15.9375 1.0625 C17.59475792 4.08455855 17.28123569 6.78176996 17.1875 10.1875 C17.16042969 11.45980469 17.13335937 12.73210938 17.10546875 14.04296875 C17.07066406 15.01878906 17.03585938 15.99460937 17 17 C10.98173262 12.02838782 5.33662648 6.70170757 0 1 C0 0.67 0 0.34 0 0 Z M11 4 C11 4.99 11 5.98 11 7 C11.66 6.34 12.32 5.68 13 5 C12.34 4.67 11.68 4.34 11 4 Z " fill="#FF4644" transform="translate(15,32)"/>
<path d="M0 0 C0.66 0 1.32 0 2 0 C3.41015625 1.43359375 3.41015625 1.43359375 5.0625 3.4375 C11.68811486 11.73060884 11.68811486 11.73060884 20 18 C19.67 18.99 19.34 19.98 19 21 C13.88693665 19.51308664 10.93708805 16.38597546 7.3125 12.6875 C6.73177734 12.11837891 6.15105469 11.54925781 5.55273438 10.96289062 C2.4624758 7.85119673 0.2548162 5.31494862 -1 1 C-0.67 0.67 -0.34 0.34 0 0 Z " fill="#B8C5F9" transform="translate(13,31)"/>
<path d="M0 0 C0.33 0.99 0.66 1.98 1 3 C0.03114628 4.68496298 -0.96986723 6.35178756 -2 8 C-2 8.99 -2 9.98 -2 11 C-4.5 13.1875 -4.5 13.1875 -7 15 C-8.9375 14.3125 -8.9375 14.3125 -11 13 C-11.62890625 10.41796875 -11.62890625 10.41796875 -12 8 C-10.37982158 6.66081194 -8.75370657 5.3288031 -7.125 4 C-6.22007812 3.2575 -5.31515625 2.515 -4.3828125 1.75 C-2 0 -2 0 0 0 Z " fill="#FFC644" transform="translate(12,34)"/>
<path d="M0 0 C1.32 0.66 2.64 1.32 4 2 C2.34908222 6.29238623 -0.73754566 8.8793915 -4 12 C-5.32 11.34 -6.64 10.68 -8 10 C-6.34908222 5.70761377 -3.26245434 3.1206085 0 0 Z " fill="#FF8B06" transform="translate(37,23)"/>
<path d="M0 0 C4.62 0 9.24 0 14 0 C14.33 0.99 14.66 1.98 15 3 C12.87561661 3.08078641 10.7503677 3.13909141 8.625 3.1875 C7.44164062 3.22230469 6.25828125 3.25710937 5.0390625 3.29296875 C3.53472656 3.14794922 3.53472656 3.14794922 2 3 C1.34 2.01 0.68 1.02 0 0 Z " fill="#FF3232" transform="translate(15,32)"/>
<path d="M0 0 C-1.28519565 2.86697492 -2.57129254 4.97607712 -5 7 C-5.66 7 -6.32 7 -7 7 C-3.86206897 0 -3.86206897 0 0 0 Z " fill="#FFB943" transform="translate(18,50)"/>
<path d="M0 0 C0.66 0 1.32 0 2 0 C1.4409112 3.24271506 0.5867822 4.93057424 -2 7 C-2.66 7 -3.32 7 -4 7 C-2.79618552 4.50638429 -1.54571278 2.31856917 0 0 Z " fill="#FFB943" transform="translate(19,54)"/>
<path d="M0 0 C0.99 0 1.98 0 3 0 C3 0.66 3 1.32 3 2 C-1.47058824 6 -1.47058824 6 -4 6 C-2.84826645 3.53199953 -1.95216435 1.95216435 0 0 Z " fill="#FFB843" transform="translate(7,43)"/>
<path d="M0 0 C0.99 0.33 1.98 0.66 3 1 C1.37660195 2.70884005 -0.29319053 4.37446717 -2 6 C-2.66 6 -3.32 6 -4 6 C-2.84826645 3.53199953 -1.95216435 1.95216435 0 0 Z " fill="#FFB842" transform="translate(11,47)"/>
</svg>
